<svg width="161" height="160" viewBox="0 0 161 160" fill="none" xmlns="http://www.w3.org/2000/svg">
<path d="M135.571 78.0359V41.5713C135.571 41.5666 135.567 41.5631 135.567 41.5584C135.565 41.3056 135.517 41.0494 135.407 40.8037C135.37 40.7206 135.302 40.6656 135.255 40.5913C135.211 40.5197 135.169 40.4613 135.116 40.3966C134.895 40.1278 134.628 39.9137 134.31 39.8003C134.301 39.7969 134.297 39.7862 134.287 39.7831L108.461 31.0525C108.458 31.0516 108.455 31.0509 108.453 31.05L73.106 19.1003C72.7141 18.9666 72.2879 18.9666 71.896 19.1003L10.7147 39.8175C10.6122 39.8525 10.5375 39.9241 10.4454 39.9738C10.3922 40.0016 10.33 39.9987 10.2791 40.0319C10.2472 40.0528 10.2341 40.0912 10.2038 40.1141C10.0191 40.2525 9.87066 40.4184 9.74973 40.6097C9.72066 40.6556 9.67785 40.6888 9.65285 40.7369C9.52348 40.9847 9.45629 41.2575 9.4466 41.5422C9.44598 41.5606 9.43316 41.5762 9.43316 41.595L9.00004 108.6C8.99535 109.33 9.41254 109.999 10.0716 110.314L73.2047 140.543C73.4629 140.668 73.7416 140.728 74.0207 140.728L74.0219 140.727L74.0232 140.728C74.3066 140.728 74.5969 140.663 74.8691 140.527L109.404 123.175C113.873 126.662 119.476 128.761 125.571 128.761C140.102 128.761 151.925 116.938 151.925 102.407C151.925 91.4153 145.155 81.9838 135.571 78.0359ZM125.571 76.0522C113.516 76.0522 103.35 84.1981 100.226 95.2669L84.2194 102.45C83.2675 102.877 82.8413 103.994 83.2697 104.944C83.5832 105.645 84.2722 106.06 84.9913 106.06C85.2516 106.06 85.5144 106.007 85.7635 105.894L99.3485 99.7969C99.2635 100.656 99.2163 101.526 99.2163 102.407C99.2163 104.232 99.4038 106.013 99.7588 107.735L87.0197 113.819C86.0794 114.269 85.6807 115.396 86.13 116.336C86.4529 117.014 87.1303 117.41 87.8357 117.41C88.1075 117.41 88.3841 117.353 88.6469 117.226L100.833 111.405C102.072 114.801 103.982 117.869 106.415 120.451L75.9272 135.768L76.3344 69.195L131.796 44.4781V76.8263C129.796 76.3391 127.718 76.0522 125.571 76.0522ZM36.0875 53.9928L48.4847 59.1691V78.5253L42.3703 72.4822C41.8241 71.9428 41.006 71.7884 40.3007 72.0903L36.0875 73.8928V53.9928ZM39.0897 51.1544L91.2925 29.2344L102.523 33.0309L50.1932 55.7906L39.0897 51.1544ZM107.849 34.8316L128.504 41.8138L74.4319 65.9116L55.0229 57.8072L107.849 34.8316ZM72.5019 22.8825L85.891 27.4087L34.1991 49.1125L16.6638 41.7903L72.5019 22.8825ZM13.19 44.4316L32.3122 52.4162V76.7553C32.3122 77.3891 32.6304 77.9816 33.1604 78.3319C33.6882 78.68 34.361 78.7397 34.9419 78.4909L40.6185 76.0619L49.0444 84.3913C49.4063 84.7463 49.8857 84.9353 50.3719 84.9353C50.6185 84.9353 50.865 84.8894 51.1004 84.79C51.8032 84.4972 52.2597 83.8081 52.2597 83.0475V60.7459L72.5575 69.2216L72.1519 135.851L12.7844 107.427L13.19 44.4316ZM125.571 124.986C113.121 124.986 102.991 114.857 102.991 102.407C102.991 89.9569 113.121 79.8275 125.571 79.8275C138.021 79.8275 148.15 89.9569 148.15 102.407C148.15 114.857 138.021 124.986 125.571 124.986Z" fill="#0E1422"/>
<path d="M136.004 92.0562L120.217 106.712L117.479 102.842C116.877 101.994 115.697 101.791 114.847 102.391C113.994 102.994 113.794 104.172 114.395 105.023L118.38 110.653C118.696 111.098 119.187 111.383 119.728 111.441C119.793 111.448 119.858 111.45 119.922 111.45C120.397 111.45 120.856 111.273 121.206 110.946L138.572 94.8219C139.337 94.1119 139.381 92.9181 138.671 92.1553C137.961 91.3856 136.762 91.3441 136.004 92.0562Z" fill="#6FA479"/>
</svg>
