<svg width="116" height="40" viewBox="0 0 116 40" fill="none" xmlns="http://www.w3.org/2000/svg">
<g clip-path="url(#clip0_5659_1554)">
<path d="M20.4768 11.3485L14.2039 7.55509C13.6118 7.19292 12.9387 7.0015 12.2531 7.00031C10.2093 7.00031 8.33463 8.71225 8.33463 11.105V25.3073L20.4768 17.9669C22.9081 16.4947 22.9081 12.82 20.4768 11.3485ZM11.8483 18.448V10.8679L18.1162 14.6567L11.8483 18.448Z" fill="#0E1422"/>
<path d="M23.8488 32.9844C23.8488 33.0273 11.9907 32.966 11.9907 32.966L10.9432 32.8425C9.2466 32.644 7.94413 31.1233 8.00185 29.3346C8.00185 29.2917 8.00553 29.2519 8.00799 29.2103C8.05459 28.4365 8.32595 27.6961 8.7857 27.0885C8.9724 26.8461 9.20079 26.6425 9.45903 26.4882L18.478 21.0725C20.3413 19.9535 21.893 19.562 22.6998 17.5341C22.9973 16.7757 23.1258 15.9562 23.0756 15.1379L23.0444 14.5865L23.965 19.9204C24.0829 20.8264 23.9012 21.7537 23.421 22.5169C23.1325 22.9785 22.7474 23.3653 22.295 23.6479L11.8294 28.8943C11.819 28.9006 11.8088 28.9074 11.7991 28.9149C11.5126 29.1293 11.6894 29.6069 12.0402 29.5867L20.7514 29.6403C22.4431 29.5417 23.8524 31.2112 23.8488 32.9844Z" fill="#0E1422"/>
</g>
<path d="M36.3998 28L40.7998 13.6H44.8598L49.2598 28H46.4598L42.5398 15.3H43.0598L39.1998 28H36.3998ZM39.0398 25V22.46H46.6398V25H39.0398ZM54.4322 28.3C53.4388 28.3 52.5688 28.05 51.8222 27.55C51.0755 27.05 50.4922 26.37 50.0722 25.51C49.6588 24.65 49.4522 23.68 49.4522 22.6C49.4522 21.5 49.6622 20.5233 50.0822 19.67C50.5088 18.81 51.1055 18.1333 51.8722 17.64C52.6388 17.1467 53.5388 16.9 54.5722 16.9C55.5988 16.9 56.4622 17.15 57.1622 17.65C57.8622 18.15 58.3922 18.83 58.7522 19.69C59.1122 20.55 59.2922 21.52 59.2922 22.6C59.2922 23.68 59.1088 24.65 58.7422 25.51C58.3822 26.37 57.8422 27.05 57.1222 27.55C56.4022 28.05 55.5055 28.3 54.4322 28.3ZM54.8722 25.88C55.4788 25.88 55.9622 25.7433 56.3222 25.47C56.6888 25.1967 56.9522 24.8133 57.1122 24.32C57.2722 23.8267 57.3522 23.2533 57.3522 22.6C57.3522 21.9467 57.2722 21.3733 57.1122 20.88C56.9522 20.3867 56.6955 20.0033 56.3422 19.73C55.9955 19.4567 55.5388 19.32 54.9722 19.32C54.3655 19.32 53.8655 19.47 53.4722 19.77C53.0855 20.0633 52.7988 20.46 52.6122 20.96C52.4255 21.4533 52.3322 22 52.3322 22.6C52.3322 23.2067 52.4222 23.76 52.6022 24.26C52.7822 24.7533 53.0588 25.1467 53.4322 25.44C53.8055 25.7333 54.2855 25.88 54.8722 25.88ZM57.3522 28V20.6H57.0122V13.6H59.7522V28H57.3522ZM74.5522 28V21.62C74.5522 20.9067 74.3822 20.3533 74.0422 19.96C73.7088 19.56 73.2455 19.36 72.6522 19.36C72.2722 19.36 71.9422 19.45 71.6622 19.63C71.3822 19.8033 71.1622 20.05 71.0022 20.37C70.8488 20.6833 70.7722 21.0467 70.7722 21.46L69.6322 20.7C69.6322 19.96 69.8055 19.3067 70.1522 18.74C70.5055 18.1733 70.9755 17.7333 71.5622 17.42C72.1555 17.1 72.8122 16.94 73.5322 16.94C74.7655 16.94 75.6955 17.3067 76.3222 18.04C76.9555 18.7667 77.2722 19.72 77.2722 20.9V28H74.5522ZM61.5322 28V17.2H63.9322V20.78H64.2722V28H61.5322ZM68.0522 28V21.62C68.0522 20.9067 67.8822 20.3533 67.5422 19.96C67.2088 19.56 66.7455 19.36 66.1522 19.36C65.5855 19.36 65.1288 19.5567 64.7822 19.95C64.4422 20.3367 64.2722 20.84 64.2722 21.46L63.1322 20.66C63.1322 19.9533 63.3088 19.32 63.6622 18.76C64.0155 18.2 64.4888 17.7567 65.0822 17.43C65.6822 17.1033 66.3522 16.94 67.0922 16.94C67.9388 16.94 68.6322 17.12 69.1722 17.48C69.7188 17.84 70.1222 18.32 70.3822 18.92C70.6422 19.52 70.7722 20.18 70.7722 20.9V28H68.0522ZM79.0725 15.7V13.3H81.7925V15.7H79.0725ZM79.0725 28V17.2H81.7925V28H79.0725ZM91.1504 28V22.9C91.1504 22.6533 91.1371 22.34 91.1104 21.96C91.0838 21.5733 91.0004 21.1867 90.8604 20.8C90.7204 20.4133 90.4904 20.09 90.1704 19.83C89.8571 19.57 89.4104 19.44 88.8304 19.44C88.5971 19.44 88.3471 19.4767 88.0804 19.55C87.8138 19.6233 87.5638 19.7667 87.3304 19.98C87.0971 20.1867 86.9038 20.4933 86.7504 20.9C86.6038 21.3067 86.5304 21.8467 86.5304 22.52L84.9704 21.78C84.9704 20.9267 85.1438 20.1267 85.4904 19.38C85.8371 18.6333 86.3571 18.03 87.0504 17.57C87.7504 17.11 88.6304 16.88 89.6904 16.88C90.5371 16.88 91.2271 17.0233 91.7604 17.31C92.2938 17.5967 92.7071 17.96 93.0004 18.4C93.3004 18.84 93.5138 19.3 93.6404 19.78C93.7671 20.2533 93.8438 20.6867 93.8704 21.08C93.8971 21.4733 93.9104 21.76 93.9104 21.94V28H91.1504ZM83.7704 28V17.2H86.1904V20.78H86.5304V28H83.7704Z" fill="#0E1422"/>
<defs>
<clipPath id="clip0_5659_1554">
<rect width="15.9998" height="29.9994" fill="white" transform="translate(8 5.00031)"/>
</clipPath>
</defs>
</svg>
