<svg width="168" height="44" viewBox="0 0 168 44" fill="none" xmlns="http://www.w3.org/2000/svg">
<rect x="0.5" y="0.5" width="43" height="43" rx="5.5" stroke="#E6E7E8"/>
<path d="M26.4769 13.3485L20.204 9.55503C19.6119 9.19286 18.9388 9.00144 18.2532 9.00024C16.2094 9.00024 14.3348 10.7122 14.3348 13.105V27.3073L26.4769 19.9669C28.9083 18.4946 28.9083 14.8199 26.4769 13.3485ZM17.8484 20.4479V12.8679L24.1163 16.6566L17.8484 20.4479Z" fill="#0E1422"/>
<path d="M29.8489 34.9844C29.8489 35.0273 17.9908 34.966 17.9908 34.966L16.9434 34.8425C15.2467 34.644 13.9443 33.1232 14.002 31.3346C14.002 31.2917 14.0057 31.2518 14.0081 31.2102C14.0547 30.4364 14.3261 29.6961 14.7858 29.0884C14.9725 28.8461 15.2009 28.6425 15.4592 28.4882L24.4782 23.0724C26.3414 21.9534 27.8931 21.562 28.6999 19.534C28.9974 18.7756 29.126 17.9561 29.0757 17.1378L29.0446 16.5865L29.9651 21.9204C30.083 22.8263 29.9013 23.7537 29.4211 24.5168C29.1326 24.9784 28.7475 25.3652 28.2951 25.6478L17.8295 30.8943C17.8191 30.9005 17.809 30.9074 17.7993 30.9148C17.5127 31.1292 17.6896 31.6068 18.0403 31.5867L26.7515 31.6402C28.4433 31.5416 29.8526 33.2111 29.8489 34.9844Z" fill="#0E1422"/>
<path d="M61.4 30V15.6H70.8V18.14H64.12V21.22H69.6V23.76H64.12V27.46H70.8V30H61.4ZM76.9569 30.3C75.8369 30.3 74.8769 30.05 74.0769 29.55C73.2769 29.05 72.6635 28.37 72.2369 27.51C71.8102 26.65 71.5969 25.68 71.5969 24.6C71.5969 23.5067 71.8169 22.53 72.2569 21.67C72.7035 20.81 73.3302 20.1333 74.1369 19.64C74.9435 19.1467 75.8969 18.9 76.9969 18.9C78.2702 18.9 79.3369 19.2233 80.1969 19.87C81.0635 20.51 81.6169 21.3867 81.8569 22.5L79.1369 23.22C78.9769 22.66 78.6969 22.2233 78.2969 21.91C77.9035 21.5967 77.4569 21.44 76.9569 21.44C76.3835 21.44 75.9135 21.58 75.5469 21.86C75.1802 22.1333 74.9102 22.51 74.7369 22.99C74.5635 23.4633 74.4769 24 74.4769 24.6C74.4769 25.54 74.6835 26.3033 75.0969 26.89C75.5169 27.47 76.1369 27.76 76.9569 27.76C77.5702 27.76 78.0369 27.62 78.3569 27.34C78.6769 27.06 78.9169 26.66 79.0769 26.14L81.8569 26.72C81.5502 27.8667 80.9702 28.75 80.1169 29.37C79.2635 29.99 78.2102 30.3 76.9569 30.3ZM87.4241 30.3C86.3374 30.3 85.3841 30.0567 84.5641 29.57C83.7441 29.0833 83.1041 28.4133 82.6441 27.56C82.1907 26.7 81.9641 25.7133 81.9641 24.6C81.9641 23.4733 82.1974 22.4833 82.6641 21.63C83.1307 20.77 83.7741 20.1 84.5941 19.62C85.4141 19.14 86.3574 18.9 87.4241 18.9C88.5107 18.9 89.4641 19.1433 90.2841 19.63C91.1107 20.1167 91.7541 20.79 92.2141 21.65C92.6741 22.5033 92.9041 23.4867 92.9041 24.6C92.9041 25.72 92.6707 26.71 92.2041 27.57C91.7441 28.4233 91.1007 29.0933 90.2741 29.58C89.4541 30.06 88.5041 30.3 87.4241 30.3ZM87.4241 27.76C88.2974 27.76 88.9474 27.4667 89.3741 26.88C89.8074 26.2867 90.0241 25.5267 90.0241 24.6C90.0241 23.64 89.8041 22.8733 89.3641 22.3C88.9307 21.7267 88.2841 21.44 87.4241 21.44C86.8307 21.44 86.3441 21.5733 85.9641 21.84C85.5841 22.1067 85.3007 22.4767 85.1141 22.95C84.9341 23.4233 84.8441 23.9733 84.8441 24.6C84.8441 25.5667 85.0607 26.3367 85.4941 26.91C85.9341 27.4767 86.5774 27.76 87.4241 27.76ZM107.103 30V23.62C107.103 22.9067 106.933 22.3533 106.593 21.96C106.26 21.56 105.796 21.36 105.203 21.36C104.823 21.36 104.493 21.45 104.213 21.63C103.933 21.8033 103.713 22.05 103.553 22.37C103.4 22.6833 103.323 23.0467 103.323 23.46L102.183 22.7C102.183 21.96 102.356 21.3067 102.703 20.74C103.056 20.1733 103.526 19.7333 104.113 19.42C104.706 19.1 105.363 18.94 106.083 18.94C107.316 18.94 108.246 19.3067 108.873 20.04C109.506 20.7667 109.823 21.72 109.823 22.9V30H107.103ZM94.0831 30V19.2H96.4831V22.78H96.8231V30H94.0831ZM100.603 30V23.62C100.603 22.9067 100.433 22.3533 100.093 21.96C99.7598 21.56 99.2965 21.36 98.7031 21.36C98.1365 21.36 97.6798 21.5567 97.3331 21.95C96.9931 22.3367 96.8231 22.84 96.8231 23.46L95.6831 22.66C95.6831 21.9533 95.8598 21.32 96.2131 20.76C96.5665 20.2 97.0398 19.7567 97.6331 19.43C98.2331 19.1033 98.9031 18.94 99.6431 18.94C100.49 18.94 101.183 19.12 101.723 19.48C102.27 19.84 102.673 20.32 102.933 20.92C103.193 21.52 103.323 22.18 103.323 22.9V30H100.603ZM124.423 30V23.62C124.423 22.9067 124.253 22.3533 123.913 21.96C123.58 21.56 123.117 21.36 122.523 21.36C122.143 21.36 121.813 21.45 121.533 21.63C121.253 21.8033 121.033 22.05 120.873 22.37C120.72 22.6833 120.643 23.0467 120.643 23.46L119.503 22.7C119.503 21.96 119.677 21.3067 120.023 20.74C120.377 20.1733 120.847 19.7333 121.433 19.42C122.027 19.1 122.683 18.94 123.403 18.94C124.637 18.94 125.567 19.3067 126.193 20.04C126.827 20.7667 127.143 21.72 127.143 22.9V30H124.423ZM111.403 30V19.2H113.803V22.78H114.143V30H111.403ZM117.923 30V23.62C117.923 22.9067 117.753 22.3533 117.413 21.96C117.08 21.56 116.617 21.36 116.023 21.36C115.457 21.36 115 21.5567 114.653 21.95C114.313 22.3367 114.143 22.84 114.143 23.46L113.003 22.66C113.003 21.9533 113.18 21.32 113.533 20.76C113.887 20.2 114.36 19.7567 114.953 19.43C115.553 19.1033 116.223 18.94 116.963 18.94C117.81 18.94 118.503 19.12 119.043 19.48C119.59 19.84 119.993 20.32 120.253 20.92C120.513 21.52 120.643 22.18 120.643 22.9V30H117.923ZM133.568 30.3C132.462 30.3 131.485 30.0633 130.638 29.59C129.798 29.11 129.138 28.4533 128.658 27.62C128.185 26.78 127.948 25.82 127.948 24.74C127.948 23.56 128.182 22.5333 128.648 21.66C129.115 20.7867 129.758 20.11 130.578 19.63C131.398 19.1433 132.342 18.9 133.408 18.9C134.542 18.9 135.505 19.1667 136.298 19.7C137.092 20.2333 137.678 20.9833 138.058 21.95C138.438 22.9167 138.572 24.0533 138.458 25.36H135.768V24.36C135.768 23.26 135.592 22.47 135.238 21.99C134.892 21.5033 134.322 21.26 133.528 21.26C132.602 21.26 131.918 21.5433 131.478 22.11C131.045 22.67 130.828 23.5 130.828 24.6C130.828 25.6067 131.045 26.3867 131.478 26.94C131.918 27.4867 132.562 27.76 133.408 27.76C133.942 27.76 134.398 27.6433 134.778 27.41C135.158 27.1767 135.448 26.84 135.648 26.4L138.368 27.18C137.962 28.1667 137.318 28.9333 136.438 29.48C135.565 30.0267 134.608 30.3 133.568 30.3ZM129.988 25.36V23.34H137.148V25.36H129.988ZM139.716 30V19.2H142.116V21.84L141.856 21.5C141.996 21.1267 142.183 20.7867 142.416 20.48C142.65 20.1733 142.936 19.92 143.276 19.72C143.536 19.56 143.82 19.4367 144.126 19.35C144.433 19.2567 144.75 19.2 145.076 19.18C145.403 19.1533 145.73 19.16 146.056 19.2V21.74C145.756 21.6467 145.406 21.6167 145.006 21.65C144.613 21.6767 144.256 21.7667 143.936 21.92C143.616 22.0667 143.346 22.2633 143.126 22.51C142.906 22.75 142.74 23.0367 142.626 23.37C142.513 23.6967 142.456 24.0667 142.456 24.48V30H139.716ZM151.523 30.3C150.403 30.3 149.443 30.05 148.643 29.55C147.843 29.05 147.23 28.37 146.803 27.51C146.377 26.65 146.163 25.68 146.163 24.6C146.163 23.5067 146.383 22.53 146.823 21.67C147.27 20.81 147.897 20.1333 148.703 19.64C149.51 19.1467 150.463 18.9 151.563 18.9C152.837 18.9 153.903 19.2233 154.763 19.87C155.63 20.51 156.183 21.3867 156.423 22.5L153.703 23.22C153.543 22.66 153.263 22.2233 152.863 21.91C152.47 21.5967 152.023 21.44 151.523 21.44C150.95 21.44 150.48 21.58 150.113 21.86C149.747 22.1333 149.477 22.51 149.303 22.99C149.13 23.4633 149.043 24 149.043 24.6C149.043 25.54 149.25 26.3033 149.663 26.89C150.083 27.47 150.703 27.76 151.523 27.76C152.137 27.76 152.603 27.62 152.923 27.34C153.243 27.06 153.483 26.66 153.643 26.14L156.423 26.72C156.117 27.8667 155.537 28.75 154.683 29.37C153.83 29.99 152.777 30.3 151.523 30.3ZM162.15 30.3C161.044 30.3 160.067 30.0633 159.22 29.59C158.38 29.11 157.72 28.4533 157.24 27.62C156.767 26.78 156.53 25.82 156.53 24.74C156.53 23.56 156.764 22.5333 157.23 21.66C157.697 20.7867 158.34 20.11 159.16 19.63C159.98 19.1433 160.924 18.9 161.99 18.9C163.124 18.9 164.087 19.1667 164.88 19.7C165.674 20.2333 166.26 20.9833 166.64 21.95C167.02 22.9167 167.154 24.0533 167.04 25.36H164.35V24.36C164.35 23.26 164.174 22.47 163.82 21.99C163.474 21.5033 162.904 21.26 162.11 21.26C161.184 21.26 160.5 21.5433 160.06 22.11C159.627 22.67 159.41 23.5 159.41 24.6C159.41 25.6067 159.627 26.3867 160.06 26.94C160.5 27.4867 161.144 27.76 161.99 27.76C162.524 27.76 162.98 27.6433 163.36 27.41C163.74 27.1767 164.03 26.84 164.23 26.4L166.95 27.18C166.544 28.1667 165.9 28.9333 165.02 29.48C164.147 30.0267 163.19 30.3 162.15 30.3ZM158.57 25.36V23.34H165.73V25.36H158.57Z" fill="#0E1422"/>
</svg>
